<svg xmlns="http://www.w3.org/2000/svg" viewBox="0 0 1600 900" role="img" aria-labelledby="title desc">
  <title id="title">Irmãos do Asfalto na estrada</title>
  <desc id="desc">Cena estilizada de motociclistas reunidos em uma rodovia ao pôr do sol.</desc>
  <defs>
    <linearGradient id="sky" x1="0" y1="0" x2="0" y2="1"><stop offset="0" stop-color="#181514"/><stop offset=".46" stop-color="#6f2414"/><stop offset=".72" stop-color="#d96b1f"/><stop offset="1" stop-color="#17120f"/></linearGradient>
    <linearGradient id="road" x1="0" y1="0" x2="0" y2="1"><stop offset="0" stop-color="#252321"/><stop offset="1" stop-color="#050505"/></linearGradient>
    <radialGradient id="sun"><stop offset="0" stop-color="#ffd9a0"/><stop offset=".35" stop-color="#e67f34"/><stop offset="1" stop-color="#a11b1b"/></radialGradient>
    <radialGradient id="vignette"><stop offset="55%" stop-color="#000" stop-opacity="0"/><stop offset="100%" stop-color="#000" stop-opacity=".9"/></radialGradient>
    <filter id="soft"><feGaussianBlur stdDeviation="14"/></filter>
  </defs>
  <rect width="1600" height="900" fill="url(#sky)"/>
  <circle cx="1110" cy="286" r="112" fill="url(#sun)" opacity=".88"/>
  <ellipse cx="1110" cy="286" rx="180" ry="48" fill="#ed8b43" opacity=".18" filter="url(#soft)"/>
  <path d="M0 390 130 348 248 370 354 319 482 364 624 312 759 360 902 321 1035 370 1180 332 1322 362 1452 325 1600 364V520H0Z" fill="#171514" opacity=".95"/>
  <path d="M0 478 215 448 401 468 612 428 824 465 1042 436 1250 470 1437 443 1600 461V560H0Z" fill="#0b0a09"/>
  <path d="M535 900 722 500h160l204 400Z" fill="url(#road)"/>
  <path d="M722 500 535 900" stroke="#c8bca9" stroke-width="8" opacity=".28"/>
  <path d="M882 500 1086 900" stroke="#c8bca9" stroke-width="8" opacity=".28"/>
  <path d="M802 520 802 570M802 605 802 675M802 720 802 812M802 852 802 900" stroke="#d96b1f" stroke-width="9" opacity=".9"/>
  <path d="M0 548h1600" stroke="#a11b1b" stroke-width="3" opacity=".22"/>
  <g fill="#050505" stroke="#161616" stroke-width="6">
    <g transform="translate(1080 500) scale(1.28)"><circle cx="-70" cy="160" r="58"/><circle cx="92" cy="160" r="58"/><path d="M-70 160 2 78l90 82M-18 143h66l44 17M2 78l34 9 30 35" fill="none" stroke="#050505" stroke-width="22" stroke-linecap="round"/><path d="M8 84c12-48 24-75 47-89 17 13 22 37 12 69l-16 41Z"/><circle cx="55" cy="-4" r="24"/><path d="M38 1c-3 47-13 77-39 96" fill="none" stroke="#050505" stroke-width="28" stroke-linecap="round"/><path d="M45 41c-42 14-72 18-104 10" fill="none" stroke="#050505" stroke-width="17" stroke-linecap="round"/></g>
    <g transform="translate(1328 535) scale(.83)"><circle cx="-70" cy="160" r="58"/><circle cx="92" cy="160" r="58"/><path d="M-70 160 2 78l90 82M-18 143h66l44 17M2 78l34 9 30 35" fill="none" stroke="#050505" stroke-width="22" stroke-linecap="round"/><circle cx="55" cy="-4" r="24"/><path d="M38 1c-3 47-13 77-39 96" fill="none" stroke="#050505" stroke-width="28" stroke-linecap="round"/></g>
    <g transform="translate(866 564) scale(.62)"><circle cx="-70" cy="160" r="58"/><circle cx="92" cy="160" r="58"/><path d="M-70 160 2 78l90 82M-18 143h66l44 17M2 78l34 9 30 35" fill="none" stroke="#050505" stroke-width="22" stroke-linecap="round"/><circle cx="55" cy="-4" r="24"/><path d="M38 1c-3 47-13 77-39 96" fill="none" stroke="#050505" stroke-width="28" stroke-linecap="round"/></g>
  </g>
  <g opacity=".22" fill="#f2e5cf"><circle cx="1180" cy="180" r="2"/><circle cx="1220" cy="210" r="1.5"/><circle cx="1290" cy="165" r="1.4"/><circle cx="1380" cy="250" r="1.8"/><circle cx="990" cy="210" r="1.3"/></g>
  <rect width="1600" height="900" fill="url(#vignette)"/>
</svg>